name rise36.2859peak64.2979fall75.1499.mot
datacolumns 19
datarows 21
range 12.54995300000000 12.58328800000000
endheader
time	ground_force1_vx	ground_force1_vy	ground_force1_vz	ground_force1_px	ground_force1_py	ground_force1_pz	ground_force2_vx	ground_force2_vy	ground_force2_vz	ground_force2_px	ground_force2_py	ground_force2_pz	ground_torque1_x	ground_torque1_y	ground_torque1_z	ground_torque2_x	ground_torque2_y	ground_torque2_z	
12.54995300000000	48.77906600000000	717.09205699999995	54.40796100000000	0.41838700000000	0.00000000000000	0.10232000000000	1.34186200000000	6.68801500000000	0.94084300000000	0.00000000000000	0.00000000000000	0.00000000000000	0.00000000000000	34.04744900000000	0.00000000000000	0.00000000000000	0.34847700000000	0.00000000000000	
12.55161900000000	48.33520100000000	720.95639900000003	54.74055900000000	0.41671100000000	0.00000000000000	0.10244900000000	0.97985000000000	3.32119300000000	0.56089100000000	0.00000000000000	0.00000000000000	0.00000000000000	0.00000000000000	34.23002900000000	0.00000000000000	0.00000000000000	0.23009200000000	0.00000000000000	
12.55328700000000	47.89321600000000	724.76038400000004	55.07988100000000	0.41505200000000	0.00000000000000	0.10258000000000	0.00000000000000	0.00000000000000	0.00000000000000	0.00000000000000	0.00000000000000	0.00000000000000	0.00000000000000	34.41775400000000	0.00000000000000	0.00000000000000	0.00000000000000	0.00000000000000	
12.55495700000000	47.45333200000000	728.49930600000005	55.42519600000000	0.41341200000000	0.00000000000000	0.10271300000000	0.00000000000000	0.00000000000000	0.00000000000000	0.00000000000000	0.00000000000000	0.00000000000000	0.00000000000000	34.61018800000000	0.00000000000000	0.00000000000000	0.00000000000000	0.00000000000000	
12.55661500000000	47.01570800000000	732.16839300000004	55.77569700000000	0.41179300000000	0.00000000000000	0.10284800000000	0.00000000000000	0.00000000000000	0.00000000000000	0.00000000000000	0.00000000000000	0.00000000000000	0.00000000000000	34.80683900000000	0.00000000000000	0.00000000000000	0.00000000000000	0.00000000000000	
12.55828300000000	46.58044700000000	735.76283000000001	56.13050200000000	0.41019600000000	0.00000000000000	0.10298400000000	0.00000000000000	0.00000000000000	0.00000000000000	0.00000000000000	0.00000000000000	0.00000000000000	0.00000000000000	35.00716500000000	0.00000000000000	0.00000000000000	0.00000000000000	0.00000000000000	
12.55994900000000	46.14759400000000	739.27778300000000	56.48866700000000	0.40862300000000	0.00000000000000	0.10312100000000	0.00000000000000	0.00000000000000	0.00000000000000	0.00000000000000	0.00000000000000	0.00000000000000	0.00000000000000	35.21057800000000	0.00000000000000	0.00000000000000	0.00000000000000	0.00000000000000	
12.56162200000000	45.71714500000000	742.70842700000003	56.84919100000000	0.40707700000000	0.00000000000000	0.10325900000000	0.00000000000000	0.00000000000000	0.00000000000000	0.00000000000000	0.00000000000000	0.00000000000000	0.00000000000000	35.41645200000000	0.00000000000000	0.00000000000000	0.00000000000000	0.00000000000000	
12.56328300000000	45.28904800000000	746.04996600000004	57.21102400000000	0.40555700000000	0.00000000000000	0.10339800000000	0.00000000000000	0.00000000000000	0.00000000000000	0.00000000000000	0.00000000000000	0.00000000000000	0.00000000000000	35.62412500000000	0.00000000000000	0.00000000000000	0.00000000000000	0.00000000000000	
12.56495400000000	44.86320400000000	749.29766099999995	57.57307600000000	0.40406500000000	0.00000000000000	0.10353700000000	0.00000000000000	0.00000000000000	0.00000000000000	0.00000000000000	0.00000000000000	0.00000000000000	0.00000000000000	35.83291000000000	0.00000000000000	0.00000000000000	0.00000000000000	0.00000000000000	
12.56662200000000	44.43947300000000	752.44685200000004	57.93422300000000	0.40260300000000	0.00000000000000	0.10367600000000	0.00000000000000	0.00000000000000	0.00000000000000	0.00000000000000	0.00000000000000	0.00000000000000	0.00000000000000	36.04209400000000	0.00000000000000	0.00000000000000	0.00000000000000	0.00000000000000	
12.56828800000000	44.01767800000000	755.49298199999998	58.29331900000000	0.40117100000000	0.00000000000000	0.10381500000000	0.00000000000000	0.00000000000000	0.00000000000000	0.00000000000000	0.00000000000000	0.00000000000000	0.00000000000000	36.25095000000000	0.00000000000000	0.00000000000000	0.00000000000000	0.00000000000000	
12.56996100000000	43.59760600000000	758.43162099999995	58.64919800000000	0.39977000000000	0.00000000000000	0.10395500000000	0.00000000000000	0.00000000000000	0.00000000000000	0.00000000000000	0.00000000000000	0.00000000000000	0.00000000000000	36.45873700000000	0.00000000000000	0.00000000000000	0.00000000000000	0.00000000000000	
12.57162100000000	43.17901500000000	761.25848699999995	59.00068900000000	0.39840100000000	0.00000000000000	0.10409300000000	0.00000000000000	0.00000000000000	0.00000000000000	0.00000000000000	0.00000000000000	0.00000000000000	0.00000000000000	36.66471100000000	0.00000000000000	0.00000000000000	0.00000000000000	0.00000000000000	
12.57328200000000	42.76163500000000	763.96946500000001	59.34661900000000	0.39706400000000	0.00000000000000	0.10423100000000	0.00000000000000	0.00000000000000	0.00000000000000	0.00000000000000	0.00000000000000	0.00000000000000	0.00000000000000	36.86812200000000	0.00000000000000	0.00000000000000	0.00000000000000	0.00000000000000	
12.57496100000000	42.34517300000000	766.56063500000005	59.68582200000000	0.39576000000000	0.00000000000000	0.10436800000000	0.00000000000000	0.00000000000000	0.00000000000000	0.00000000000000	0.00000000000000	0.00000000000000	0.00000000000000	37.06822900000000	0.00000000000000	0.00000000000000	0.00000000000000	0.00000000000000	
12.57662000000000	41.92931800000000	769.02828199999999	60.01714700000000	0.39448800000000	0.00000000000000	0.10450400000000	0.00000000000000	0.00000000000000	0.00000000000000	0.00000000000000	0.00000000000000	0.00000000000000	0.00000000000000	37.26429600000000	0.00000000000000	0.00000000000000	0.00000000000000	0.00000000000000	
12.57828600000000	41.51374100000000	771.36892399999999	60.33946300000000	0.39325000000000	0.00000000000000	0.10463900000000	0.00000000000000	0.00000000000000	0.00000000000000	0.00000000000000	0.00000000000000	0.00000000000000	0.00000000000000	37.45560000000000	0.00000000000000	0.00000000000000	0.00000000000000	0.00000000000000	
12.57994900000000	41.09810400000000	773.57932200000005	60.65167000000000	0.39204400000000	0.00000000000000	0.10477300000000	0.00000000000000	0.00000000000000	0.00000000000000	0.00000000000000	0.00000000000000	0.00000000000000	0.00000000000000	37.64143800000000	0.00000000000000	0.00000000000000	0.00000000000000	0.00000000000000	
12.58162200000000	40.68205700000000	775.65649900000005	60.95270000000000	0.39087100000000	0.00000000000000	0.10490500000000	0.00000000000000	0.00000000000000	0.00000000000000	0.00000000000000	0.00000000000000	0.00000000000000	0.00000000000000	37.82112500000000	0.00000000000000	0.00000000000000	0.00000000000000	0.00000000000000	
12.58328800000000	40.26524900000000	777.59775500000001	61.24152800000000	0.38973100000000	0.00000000000000	0.10503500000000	0.00000000000000	0.00000000000000	0.00000000000000	0.00000000000000	0.00000000000000	0.00000000000000	0.00000000000000	37.99400100000000	0.00000000000000	0.00000000000000	0.00000000000000	0.00000000000000	
